<svg viewBox="0 0 20 20">
<path d="M18.4134 13.1058C18.4134 12.8942 18.4711 12.6923 18.572 12.5192C18.6009 12.4663 18.6393 12.4183 18.673 12.3702C19.5095 11.1202 19.9999 9.625 19.9999 8.02885C20.0143 3.59615 16.274 0 11.649 0C7.61535 0 4.24997 2.74519 3.46151 6.38942C3.34613 6.92308 3.28363 7.46635 3.28363 8.03365C3.28363 12.4712 6.87977 16.1635 11.5048 16.1635C12.2403 16.1635 13.2307 15.9423 13.774 15.7933C14.3172 15.6442 14.8557 15.4471 14.9951 15.3942C15.1346 15.3413 15.2884 15.3125 15.4422 15.3125C15.6153 15.3125 15.7788 15.3462 15.9278 15.4087L18.6538 16.375C18.6538 16.375 18.7692 16.4231 18.8413 16.4231C19.0528 16.4231 19.2259 16.2548 19.2259 16.0385C19.2259 15.9904 19.2018 15.9087 19.2018 15.9087L18.4134 13.1058Z"/>
<path d="M13.0048 16.5625C12.8317 16.6106 12.6105 16.6635 12.3702 16.7164C11.8653 16.8221 11.2211 16.9327 10.7355 16.9327C6.11056 16.9327 2.51442 13.2404 2.51442 8.80289C2.51442 8.48558 2.54807 8.08173 2.58653 7.77404C2.61538 7.56731 2.64903 7.36058 2.69711 7.15866C2.74518 6.94231 2.80288 6.72597 2.86538 6.51443L2.48076 6.85577C0.903843 8.23077 0 10.1923 0 12.2356C0 13.6442 0.408653 15 1.1923 16.1779C1.30288 16.3462 1.36538 16.476 1.34615 16.5625C1.32692 16.649 0.774036 19.5433 0.774036 19.5433C0.74519 19.6827 0.798075 19.8221 0.903844 19.9135C0.975959 19.9712 1.0625 20 1.14903 20C1.19711 20 1.24519 19.9904 1.28846 19.9712L3.98556 18.9087C4.0721 18.875 4.16345 18.8558 4.2596 18.8558C4.2596 18.8558 4.37499 18.8462 4.56249 18.9183C5.47114 19.274 6.47594 19.4952 7.48075 19.4952C9.72112 19.4952 11.8269 18.5288 13.2548 16.8462C13.2548 16.8462 13.4086 16.6346 13.5865 16.3846C13.4086 16.4471 13.2067 16.5096 13.0048 16.5625V16.5625Z" />
</svg>
