<svg viewBox="0 0 20 20">
<path d="M18.349 9.9974C18.349 8.90393 19.0312 7.97188 20 7.59698C19.7448 6.52955 19.3229 5.52981 18.7656 4.6238C18.4323 4.76959 18.0781 4.8477 17.7188 4.8477C17.0625 4.8477 16.4062 4.59776 15.901 4.09789C15.125 3.32205 14.9531 2.18172 15.3698 1.23405C14.4688 0.676907 13.4635 0.255142 12.401 0C12.0313 0.963291 11.0937 1.65061 10 1.65061C8.90625 1.65061 7.96875 0.963291 7.59896 0C6.53125 0.255142 5.53125 0.676907 4.625 1.23405C5.04688 2.17652 4.86979 3.32205 4.09375 4.09789C3.59375 4.59776 2.93229 4.8477 2.27604 4.8477C1.91667 4.8477 1.5625 4.7748 1.22917 4.6238C0.677083 5.53502 0.255208 6.53476 0 7.60219C0.963542 7.97188 1.65104 8.90393 1.65104 10.0026C1.65104 11.0961 0.96875 12.0281 0.00520825 12.403C0.260417 13.4705 0.682292 14.4702 1.23958 15.3762C1.57292 15.2304 1.92708 15.1575 2.28125 15.1575C2.9375 15.1575 3.59375 15.4074 4.09896 15.9073C4.86979 16.6779 5.04687 17.8235 4.63021 18.7659C5.53646 19.3231 6.54167 19.7449 7.60417 20C7.97396 19.0367 8.90625 18.3546 10 18.3546C11.0937 18.3546 12.026 19.0367 12.3958 20C13.4635 19.7449 14.4635 19.3231 15.3698 18.7659C14.9531 17.8235 15.1302 16.6832 15.901 15.9073C16.401 15.4074 17.0573 15.1575 17.7188 15.1575C18.0729 15.1575 18.4323 15.2304 18.7604 15.3762C19.3177 14.4702 19.7396 13.4652 19.9948 12.403C19.0365 12.0281 18.349 11.0961 18.349 9.9974V9.9974ZM10.0469 14.1578C7.73958 14.1578 5.88021 12.2885 5.88021 9.99219C5.88021 7.69591 7.73958 5.82661 10.0469 5.82661C12.3542 5.82661 14.2135 7.69591 14.2135 9.99219C14.2135 12.2885 12.3542 14.1578 10.0469 14.1578Z"/>
</svg>
