<svg viewBox="0 0 32 28">
<path d="M13.6708 0.926819C20.9439 0.926819 26.8415 6.82438 26.8415 14.0976V17.0244H23.9147V14.0976C23.9147 8.43414 19.3342 3.85365 13.6708 3.85365C8.00735 3.85365 3.42686 8.43414 3.42686 14.0976C3.42686 19.761 8.00735 24.3415 13.6708 24.3415C16.4951 24.3415 19.0561 23.1854 20.9 21.3268L22.9781 23.4049C20.5927 25.7902 17.3147 27.2683 13.6708 27.2683C6.39759 27.2683 0.500028 21.3707 0.500028 14.0976C0.500028 6.82438 6.39759 0.926819 13.6708 0.926819Z" />
<path d="M30.5 14.0976L25.378 17.7561L20.2561 14.0976" stroke="#00B0FF" stroke-width="2"/>
<path d="M10.7945 17.5521H9.97711V12.1337L8.33795 12.7357V11.9974L10.6671 11.1229H10.7945V17.5521ZM17.1885 14.8231C17.1885 15.7753 17.0259 16.4828 16.7007 16.9457C16.3755 17.4086 15.8672 17.64 15.1758 17.64C14.4932 17.64 13.9879 17.4144 13.6597 16.9632C13.3316 16.5091 13.1617 15.8324 13.15 14.933V13.8475C13.15 12.9071 13.3126 12.2084 13.6378 11.7513C13.963 11.2943 14.4727 11.0658 15.1671 11.0658C15.8555 11.0658 16.3624 11.287 16.6876 11.7294C17.0128 12.1688 17.1797 12.8485 17.1885 13.7684V14.8231ZM16.3755 13.7113C16.3755 13.0228 16.2789 12.5218 16.0855 12.2084C15.8922 11.892 15.586 11.7337 15.1671 11.7337C14.751 11.7337 14.4478 11.8905 14.2574 12.204C14.067 12.5174 13.9688 12.9994 13.963 13.6498V14.9505C13.963 15.642 14.0626 16.1532 14.2618 16.4842C14.4639 16.8124 14.7686 16.9764 15.1758 16.9764C15.5772 16.9764 15.8746 16.8212 16.0679 16.5106C16.2642 16.2001 16.3668 15.7108 16.3755 15.0428V13.7113Z" />
</svg>
