<svg viewBox="0 0 32 28">
<path d="M18.3292 0.926819C11.056 0.926819 5.15845 6.82438 5.15845 14.0976V17.0244H8.08528V14.0976C8.08528 8.43414 12.6658 3.85365 18.3292 3.85365C23.9926 3.85365 28.5731 8.43414 28.5731 14.0976C28.5731 19.761 23.9926 24.3415 18.3292 24.3415C15.5048 24.3415 12.9438 23.1854 11.0999 21.3268L9.02186 23.4049C11.4072 25.7902 14.6853 27.2683 18.3292 27.2683C25.6023 27.2683 31.4999 21.3707 31.4999 14.0976C31.4999 6.82438 25.6023 0.926819 18.3292 0.926819Z" />
<path d="M1.5 14.0976L6.62195 17.7561L11.7439 14.0976" stroke="#00B0FF" stroke-width="2"/>
<path d="M16.1581 17.5521H15.3408V12.1337L13.7016 12.7357V11.9974L16.0307 11.1229H16.1581V17.5521ZM22.5522 14.8231C22.5522 15.7753 22.3896 16.4828 22.0644 16.9457C21.7392 17.4086 21.2309 17.64 20.5395 17.64C19.8569 17.64 19.3515 17.4144 19.0234 16.9632C18.6953 16.5091 18.5253 15.8324 18.5136 14.933V13.8475C18.5136 12.9071 18.6762 12.2084 19.0014 11.7513C19.3266 11.2943 19.8364 11.0658 20.5307 11.0658C21.2192 11.0658 21.726 11.287 22.0512 11.7294C22.3764 12.1688 22.5434 12.8485 22.5522 13.7684V14.8231ZM21.7392 13.7113C21.7392 13.0228 21.6425 12.5218 21.4492 12.2084C21.2558 11.892 20.9496 11.7337 20.5307 11.7337C20.1147 11.7337 19.8115 11.8905 19.621 12.204C19.4306 12.5174 19.3325 12.9994 19.3266 13.6498V14.9505C19.3266 15.642 19.4262 16.1532 19.6254 16.4842C19.8276 16.8124 20.1323 16.9764 20.5395 16.9764C20.9409 16.9764 21.2382 16.8212 21.4316 16.5106C21.6279 16.2001 21.7304 15.7108 21.7392 15.0428V13.7113Z" />
</svg>
